<?xml version="1.0" encoding="iso-8859-1"?><!-- Generator: Adobe Illustrator 19.0.0, SVG Export Plug-In . SVG Version: 6.00 Build 0)  -->
<svg version="1.1" id="Capa_1" xmlns="http://www.w3.org/2000/svg" x="0px" y="0px" viewBox="0 0 511.995 511.995"
	style="enable-background:new 0 0 511.995 511.995;" xml:space="preserve">
<g>
	<g>
		<path d="M508.701,237.627L263.368,2.96c-4.117-3.947-10.624-3.947-14.741,0L3.293,237.627c-3.136,3.008-4.139,7.637-2.517,11.669
			c1.621,4.053,5.547,6.699,9.899,6.699h53.333v245.333c0,5.888,4.779,10.667,10.667,10.667h362.667
			c5.888,0,10.667-4.779,10.667-10.667V255.995h53.333c4.352,0,8.277-2.645,9.877-6.699
			C512.84,245.264,511.837,240.635,508.701,237.627z M437.341,234.661c-5.888,0-10.667,4.779-10.667,10.667v245.333H85.341V245.328
			c0-5.888-4.779-10.667-10.667-10.667H37.256L256.008,25.424L474.76,234.661H437.341z" />
	</g>
</g>
    <g>
	<g>
		<path d="M402.227,365.797c-4.16-4.16-10.923-4.16-15.083,0l-8.832,8.832c-6.059,6.037-14.08,9.365-22.635,9.365H156.36
			c-8.555,0-16.597-3.328-22.635-9.365l-8.832-8.832c-4.16-4.16-10.923-4.16-15.083,0c-4.16,4.16-4.16,10.923,0,15.083l8.832,8.832
			c10.069,10.069,23.467,15.616,37.717,15.616h199.296c14.251,0,27.648-5.547,37.739-15.616l8.832-8.832
			C406.387,376.72,406.387,369.957,402.227,365.797z" />
	</g>
</g>
    <g>
	<g>
		<path d="M255.603,308.56c-0.853-5.824-6.293-9.899-12.096-9.003c-28.181,4.16-52.331,22.08-64.619,47.915
			c-2.517,5.333-0.256,11.691,5.056,14.229c1.472,0.683,3.029,1.024,4.565,1.024c3.989,0,7.829-2.24,9.643-6.101
			c9.216-19.413,27.328-32.853,48.448-35.968C252.445,319.803,256.477,314.384,255.603,308.56z" />
	</g>
</g>
    <g>
	<g>
		<path d="M256.008,255.995c-70.592,0-128,57.408-128,128c0,5.888,4.779,10.667,10.667,10.667s10.667-4.779,10.667-10.667
			c0-58.816,47.851-106.667,106.667-106.667s106.667,47.851,106.667,106.667c0,5.888,4.779,10.667,10.667,10.667
			c5.888,0,10.667-4.779,10.667-10.667C384.008,313.403,326.6,255.995,256.008,255.995z" />
	</g>
</g>
    <g>
	<g>
		<path d="M256.008,234.661c-11.755,0-21.333,9.579-21.333,21.333c0,11.755,9.579,21.333,21.333,21.333
			c11.755,0,21.333-9.579,21.333-21.333C277.341,244.24,267.763,234.661,256.008,234.661z" />
	</g>
</g>
    <g>
</g>
    <g>
</g>
    <g>
</g>
    <g>
</g>
    <g>
</g>
    <g>
</g>
    <g>
</g>
    <g>
</g>
    <g>
</g>
    <g>
</g>
    <g>
</g>
    <g>
</g>
    <g>
</g>
    <g>
</g>
    <g>
</g>
</svg>
