<?xml version="1.0" encoding="utf-8"?>
<svg viewBox="0 0 512 512" style="enable-background:new 0 0 512 512;"
    xmlns="http://www.w3.org/2000/svg">
    <g>
        <g>
            <path
                d="M 277.182 150.093 C 259.662 132.573 231.156 132.574 213.637 150.093 C 196.076 167.654 196.074 196.075 213.637 213.638 C 222.396 222.397 233.903 226.776 245.41 226.776 C 256.916 226.776 268.423 222.397 277.183 213.637 C 294.701 196.118 294.701 167.612 277.182 150.093 Z M 256 192.456 C 250.16 198.296 240.658 198.296 234.818 192.456 C 228.965 186.603 228.964 177.129 234.818 171.275 C 240.673 165.421 250.145 165.421 256 171.275 C 261.84 177.115 261.84 186.617 256 192.456 Z" />
        </g>
    </g>
    <g>
        <g>
            <path
                d="M 298.362 298.363 C 280.844 280.845 252.338 280.844 234.818 298.364 C 217.256 315.925 217.255 344.347 234.818 361.908 C 252.336 379.427 280.843 379.428 298.362 361.908 C 315.922 344.349 315.925 315.925 298.362 298.363 Z M 277.181 340.727 C 271.341 346.567 261.839 346.566 256 340.727 C 250.146 334.873 250.146 325.401 256 319.546 C 261.855 313.692 271.327 313.693 277.181 319.546 C 283.034 325.399 283.035 334.873 277.181 340.727 Z" />
        </g>
    </g>
    <g>
        <g>
            <path
                d="M 366.203 243.757 C 365.289 235.535 357.879 229.614 349.664 230.525 L 159.029 251.706 C 150.807 252.62 144.883 260.025 145.797 268.246 C 146.711 276.47 154.119 282.392 162.336 281.477 L 352.971 260.296 C 361.193 259.383 367.117 251.978 366.203 243.757 Z" />
        </g>
    </g>
    <g>
        <g />
    </g>
    <g>
        <g />
    </g>
    <g>
        <g>
            <path
                d="M 498.827 181.43 L 474.349 156.954 C 491.332 122.863 485.002 81.048 457.379 53.426 C 429.754 25.8 387.934 19.475 353.84 36.462 L 330.88 13.506 C 313.36 -4.011 284.856 -4.01 267.338 13.508 L 13.171 267.676 C -4.39 285.237 -4.392 313.658 13.171 331.22 L 36.791 354.838 C 21.094 389.14 28.45 429.401 54.929 455.878 C 81.575 482.524 122.046 489.713 156.307 473.86 L 182.176 498.997 C 199.7 516.025 228 515.807 245.261 498.544 C 278.918 464.887 477.012 266.794 478.561 265.245 L 498.828 244.978 C 516.391 227.417 516.391 198.992 498.827 181.43 Z M 224.079 477.361 C 218.322 483.118 208.889 483.185 203.05 477.512 L 169.313 444.731 C 169.299 444.717 169.285 444.703 169.271 444.689 C 160.836 436.494 150.692 439.12 145.865 445.634 C 123.056 457.338 94.533 453.118 76.11 434.695 C 56.398 414.982 52.946 383.646 67.9 360.182 C 71.675 354.259 70.827 346.507 65.86 341.541 L 34.352 310.038 C 28.499 304.185 28.498 294.712 34.352 288.858 L 194.128 129.082 L 383.244 318.198 L 224.079 477.361 Z M 477.647 223.794 L 383.262 318.214 L 194.124 129.082 L 288.518 34.69 C 294.358 28.851 303.86 28.852 309.698 34.69 L 340.84 65.826 C 345.949 70.931 353.973 71.664 359.921 67.568 C 383.68 51.21 415.758 54.171 436.197 74.609 C 456.633 95.045 459.596 127.121 443.242 150.878 C 439.146 156.828 439.881 164.854 444.989 169.962 L 477.644 202.612 C 483.502 208.466 483.502 217.94 477.647 223.794 Z"
                style="" />
        </g>
    </g>
    <g />
    <g />
    <g />
    <g />
    <g />
    <g />
    <g />
    <g />
    <g />
    <g />
    <g />
    <g />
    <g />
    <g />
    <g />
</svg>